<?xml version="1.0" encoding="utf-8"?>
<svg version="1.1" id="Layer_1" xmlns="http://www.w3.org/2000/svg" xmlns:xlink="http://www.w3.org/1999/xlink" x="0px" y="0px"
	 viewBox="0 0 16 16" enable-background="new 0 0 16 16" xml:space="preserve">
<path fill="#11D811" d="M7.1,0.1C5.2,0.3,3.7,1,2.4,2.3C1.3,3.4,0.6,4.6,0.2,6.1C0.1,6.8,0,7.3,0,8c0,1.3,0.3,2.4,0.9,3.6
	c0.6,1.2,1.5,2.3,2.7,3c1.5,1,3.5,1.5,5.2,1.3c2-0.2,3.6-1,5-2.3c1.8-1.9,2.6-4.2,2.2-6.9c-0.2-1.6-1.1-3.3-2.3-4.4
	c-1.1-1.1-2.4-1.8-3.9-2.1C8.9,0,7.8-0.1,7.1,0.1z M9,1.1c2.2,0.3,4.1,1.7,5.1,3.8c0.3,0.6,0.5,1.3,0.6,2c0.1,0.5,0.1,1.7,0,2.2
	c-0.2,1.2-0.6,2.1-1.3,3.1c-0.1,0.2-0.4,0.5-0.7,0.7l-0.5,0.5l0,0.2l0,0.2l-0.1-0.3c-0.1-0.4-0.2-0.6-0.3-0.8
	c-0.1-0.1-0.1-0.2-0.1-0.2c0,0,0.1-0.1,0.2-0.2c0.2-0.1,0.4-0.4,0.5-0.6c0-0.1,0.1-0.1,0.2-0.1c0.2,0,0.3-0.2,0.4-0.4
	c0-0.2,0-0.2-0.1-0.4l-0.1-0.1l0.1-0.3c0.1-0.3,0.1-0.3,0-0.8c0-0.3,0-0.5,0-0.6c0-0.1-0.2-0.6-0.4-0.8c-0.3-0.4-0.4-0.5-0.9-0.8
	c-0.5-0.3-0.7-0.3-1.2-0.3c-0.5,0-0.9,0.1-1.2,0.3C8.9,7.6,8.5,8,8.1,8.6C7.9,8.8,7.9,8.8,7.9,9c0,0.1,0,0.3-0.1,0.5
	c-0.1,0.4-0.1,0.5,0.1,0.8C7.9,10.5,8,10.7,8,10.7c0,0,0,0.1-0.1,0.1c-0.2,0.2-0.2,0.4,0,0.6c0.1,0.1,0.3,0.2,0.4,0.2
	c0,0,0-0.1,0-0.2c-0.1-0.2-0.1-0.3,0,0c0.2,0.5,0.5,0.8,1,1c0.4,0.2,0.7,0.3,1.1,0.3c0.2,0,0.3,0,0.3,0c-0.2,0.1-1-0.1-1.4-0.2
	l-0.2-0.1l-0.1,0.1c-0.1,0.1-0.3,0.6-0.4,0.9c0,0.1-0.1,0.4-0.1,0.6c-0.1,0.6-0.1,0.6-0.1,0.3c-0.1-0.6-0.8-3.2-0.9-3.4
	c0,0-0.2-0.1-0.4-0.1c-0.2-0.1-0.5-0.1-0.5-0.2c-0.1,0-0.1,0-0.2,0c0,0,0,0.1,0.1,0.2c0.1,0.1,0.2,0.2,0.2,0.3
	c0.1,0.2,0.5,0.9,0.6,1.2c0.1,0.3,0.1,0.3-0.2,0.6C7,13,6.9,13.1,6.9,13.1c0,0,0.1,0.2,0.3,0.3c0.3,0.3,0.3,0.3,0.3,0.4l0,0.1l0-0.1
	c0-0.1-0.1-0.2-0.3-0.4c-0.2-0.2-0.3-0.3-0.3-0.3c0,0,0.1-0.1,0.2-0.3c0.3-0.3,0.3-0.3,0.2-0.7c-0.2-0.6-0.7-1.5-0.9-1.7
	c-0.1-0.1-0.1-0.1-0.1-0.2c0-0.1,0-0.2,0.2-0.2c0.2-0.1,0.3-0.2,0.4-0.3C7,9.7,7,9.7,7.2,9.6c0.1,0,0.3-0.1,0.3-0.1
	c0,0-0.1-0.1-0.1-0.2C7.2,9.2,7.2,9,7.3,9c0,0,0.1,0,0.2,0c0.1,0,0.2,0,0.2,0c0,0,0-0.1-0.1-0.3C7.6,8.5,7.6,8.4,7.6,8.4
	c0,0,0.1-0.1,0.2-0.1C8,8.2,8.3,8.1,8.3,8c0,0-0.1-0.1-0.2-0.2C7.8,7.7,7.6,7.5,7.6,7.5c0,0,0.1-0.1,0.2-0.1C8.1,7.3,8.4,7.1,8.7,7
	c0.1-0.1,0.2-0.1,0.2-0.1c0,0-0.8-0.4-0.9-0.4c0,0,0,0,0-0.1c0,0,0.2-0.2,0.4-0.4c0.2-0.2,0.4-0.4,0.4-0.4c0,0-0.2-0.1-0.7-0.1
	c-0.2,0-0.4-0.1-0.4-0.1c0,0,0.1-0.3,0.3-0.6c0.3-0.5,0.4-0.6,0.3-0.6c0,0-0.3,0.1-0.6,0.2C7.3,4.5,7.2,4.5,7.2,4.5
	C7.1,4.4,7,3.9,7,3.4V3L6.8,3.1C6.5,3.3,6.1,3.6,5.9,3.8C5.9,3.9,5.8,3.9,5.8,3.9c0,0-0.1-0.1-0.3-0.3C5.3,3.3,4.9,2.9,4.9,2.9
	c0,0,0,0.1-0.1,0.3c-0.1,0.5-0.2,1-0.3,1c0,0-0.2-0.1-0.3-0.1C4,4,3.6,3.8,3.4,3.8c0,0,0,0.1,0.1,0.2c0.1,0.3,0.3,0.7,0.2,0.8l0,0.1
	L3.5,5C2.7,5.1,2.3,5.1,2.3,5.2c0,0,0.1,0.2,0.3,0.3c0.3,0.3,0.5,0.6,0.5,0.8c0,0-0.2,0.2-0.5,0.4C2.4,6.8,2.2,7,2.1,7
	c0,0,0,0,0.1,0c0.3,0.1,0.5,0.1,0.6,0.2C3,7.3,3.1,7.5,3.2,7.6l0.1,0.1L2.9,8C2.6,8.3,2.6,8.4,2.6,8.4c0,0,0.2,0.1,0.4,0.2
	c0.2,0.1,0.4,0.1,0.4,0.1c0,0,0,0.2-0.1,0.4C3.3,9.3,3.3,9.4,3.3,9.5c0,0,0.5,0,0.6,0C4,9.4,4,9.5,4,9.7c0,0.1,0,0.3,0,0.3
	c0,0,0.4-0.1,0.4-0.2c0,0,0-0.1-0.1-0.1C4.1,9.4,4,9,3.9,8.5C3.8,8.1,3.8,7.8,3.8,7.8c0,0,0,0.1,0,0.2c0.1,0.7,0.4,1.5,0.7,1.8
	c0.1,0.1,0.2,0.2,0.4,0.2l0.3,0.1l0,0.1l0,0.1l-0.7,0.2l-0.7,0.2l-0.1,0.2c0,0.1-0.2,0.6-0.3,1.1c-0.2,0.9-0.3,1.1-0.3,0.8
	c0-0.1,0-0.1-0.1-0.3c-1-1.1-1.6-2.3-1.8-3.7c-0.1-0.5-0.1-1.6,0-2.2C1.5,5.3,2,4.1,3,3.1C4.6,1.5,6.7,0.7,9,1.1z M4.9,11
	c-0.2,0.5-0.6,1.5-0.6,1.6c0,0,0.1,0.2,0.3,0.3c0.1,0.1,0.3,0.2,0.3,0.3c0,0,0,0.1-0.1,0.2c-0.1,0.1-0.1,0.1-0.1,0
	c0.1-0.2,0.1-0.2-0.2-0.4c-0.2-0.2-0.3-0.3-0.3-0.3c0-0.2,0.6-1.7,0.7-1.7C4.9,10.8,4.9,10.9,4.9,11z"/>
</svg>
